<?xml version="1.0" standalone="no"?>
<!DOCTYPE svg PUBLIC "-//W3C//DTD SVG 1.1//EN" "http://www.w3.org/Graphics/SVG/1.1/DTD/svg11.dtd" >
<svg>
<metadata>
Created by FontForge 20110222 at Mon Mar  7 11:12:52 2011
 By www-data
Created 2003 by Andy Kennedy. All Rights Reserved
</metadata>
<defs>
<font id="Resselle" horiz-adv-x="540" >
  <font-face 
    font-family="Resselle"
    font-weight="400"
    font-stretch="normal"
    units-per-em="1000"
    panose-1="2 0 0 0 0 0 0 0 0 0"
    ascent="800"
    descent="-200"
    x-height="500"
    cap-height="700"
    bbox="-79 -250 1287 1062"
    underline-thickness="50"
    underline-position="-75"
    unicode-range="U+0020-0153"
  />
    <missing-glyph />
    <glyph glyph-name="space" unicode=" " horiz-adv-x="349" 
 />
    <glyph glyph-name="space" unicode="&#xa0;" horiz-adv-x="349" 
 />
    <glyph glyph-name="exclam" unicode="!" horiz-adv-x="190" 
d="M85 700h20v-500h-20v500zM95 50q25 0 25 -25t-25 -25t-25 25t25 25z" />
    <glyph glyph-name="quotedbl" unicode="&#x22;" horiz-adv-x="367" 
d="M171 701l16 -11l-141 -207l-16 12zM321 700l16 -11l-141 -207l-16 12z" />
    <glyph glyph-name="numbersign" unicode="#" horiz-adv-x="500" 
d="M165 560h20v-145h130v145h20v-145h145v-20h-145v-130h145v-20h-145v-145h-20v145h-130v-145h-20v145h-145v20h145v130h-145v20h145v145zM185 395v-130h130v130h-130z" />
    <glyph glyph-name="dollar" unicode="$" horiz-adv-x="490" 
d="M470 680v20h-120q-82 0 -141 -59t-59 -141q0 -63 75 -127l60 -50q34 -30 54 -57q36 -47 36 -91q0 -63 -57 -109t-138 -46h-160v-20h160q62 0 115 26q57 29 84 81q16 32 16 68q0 51 -41 107q-27 35 -78 78l-32 27q-71 59 -71 113q0 75 51.5 127.5t125.5 52.5h120zM280 788
h-20v-900h20v900z" />
    <glyph glyph-name="percent" unicode="%" horiz-adv-x="680" 
d="M90 12l484 688l16 -12l-484 -688zM170 650q62 0 106 -44t44 -106t-44 -106t-106 -44t-106 44t-44 106t44 106t106 44zM170 630q-54 0 -92 -38t-38 -92t38 -92t92 -38t92 38t38 92t-38 92t-92 38zM510 350q62 0 106 -44t44 -106t-44 -106t-106 -44t-106 44t-44 106t44 106
t106 44zM510 330q-54 0 -92 -38t-38 -92t38 -92t92 -38t92 38t38 92t-38 92t-92 38z" />
    <glyph glyph-name="ampersand" unicode="&#x26;" 
d="M270 700h-100q-62 0 -106 -44t-44 -106q0 -63 43 -106q32 -32 148 -149l222 -224q27 -30 71 -71l16 12l-70 71q-31 30 -69 69l-278 280q-21 21 -25 26q-38 36 -38 92q0 54 38 92t92 38h100v20zM139 373q-53 -26 -85 -70q-34 -47 -34 -103q0 -82 70 -140.5t170 -58.5
q69 0 128 31q63 32 93 91q19 36 19 77h-20q0 -74 -64.5 -127t-155.5 -53q-63 0 -117 28q-58 29 -85 82q-18 33 -18 70q0 52 33 95q31 40 81 63z" />
    <glyph glyph-name="quotesingle" unicode="'" horiz-adv-x="217" 
d="M171 700l16 -11l-141 -207l-16 12z" />
    <glyph glyph-name="parenleft" unicode="(" horiz-adv-x="520" 
d="M470 800q-187 0 -318.5 -132.5t-131.5 -317.5q0 -187 132.5 -318.5t317.5 -131.5v20q-178 0 -304 127t-126 303q0 178 127 304t303 126v20z" />
    <glyph glyph-name="parenright" unicode=")" horiz-adv-x="520" 
d="M50 800q187 0 318.5 -132.5t131.5 -317.5q0 -187 -132.5 -318.5t-317.5 -131.5v20q178 0 304 127t126 303q0 178 -127 304t-303 126v20z" />
    <glyph glyph-name="asterisk" unicode="*" horiz-adv-x="310" 
d="M145 700h20v-131l115 66l10 -18l-116 -67l116 -66l-10 -18l-115 66v-132h-20v133l-115 -66l-10 18l113 65l-113 66l10 18l115 -67v133z" />
    <glyph glyph-name="plus" unicode="+" horiz-adv-x="500" 
d="M240 560h20v-230h220v-20h-220v-210h-20v210h-220v20h220v230z" />
    <glyph glyph-name="comma" unicode="," horiz-adv-x="217" 
d="M171 118l16 -11l-141 -207l-16 12z" />
    <glyph glyph-name="hyphen" unicode="-" horiz-adv-x="500" 
d="M100 310h300v-20h-300v20z" />
    <glyph glyph-name="hyphen" unicode="&#x2010;" horiz-adv-x="500" 
d="M100 310h300v-20h-300v20z" />
    <glyph glyph-name="period" unicode="." horiz-adv-x="110" 
d="M55 50q25 0 25 -25t-25 -25t-25 25t25 25z" />
    <glyph glyph-name="slash" unicode="/" 
d="M20 12l484 688l16 -12l-484 -688z" />
    <glyph glyph-name="zero" unicode="0" 
d="M20 450q0 105 73.5 177.5t176.5 72.5q105 0 177.5 -73.5t72.5 -176.5v-200q0 -105 -73.5 -177.5t-176.5 -72.5q-105 0 -177.5 73.5t-72.5 176.5v200zM500 450q0 96 -67.5 163t-162.5 67q-96 0 -163 -67.5t-67 -162.5v-200q0 -96 67.5 -163t162.5 -67q96 0 163 67.5
t67 162.5v200z" />
    <glyph glyph-name="one" unicode="1" horiz-adv-x="290" 
d="M20 700h135v-680h115v-20h-250v20h115v660h-115v20z" />
    <glyph glyph-name="two" unicode="2" horiz-adv-x="440" 
d="M60 540q0 66 47 113t113 47t113 -47t47 -113q0 -35 -36 -84q-16 -22 -78 -97l-123 -149q-29 -35 -80 -101q-23 -30 -23 -55v-34h380v-20h-400v51q0 32 32 75q27 34 81 101q28 35 60 74l59 72l75 92q33 41 33 75q0 58 -41 99t-99 41t-99 -41t-41 -99h-20z" />
    <glyph glyph-name="three" unicode="3" horiz-adv-x="440" 
d="M60 540q0 66 47 113t113 47t113 -47t47 -113q0 -91 -68 -132q-20 -12 -42 -18q55 -7 99 -52q51 -54 51 -138q0 -82 -59 -141t-141 -59t-141 59t-59 141h20q0 -75 53 -127.5t127 -52.5q75 0 127.5 53t52.5 127q0 58 -29 103t-81 65q-33 12 -70 12v20q58 0 99 41t41 99
t-41.5 100t-98.5 40t-98.5 -42.5t-41.5 -97.5h-20z" />
    <glyph glyph-name="four" unicode="4" 
d="M370 0v200h-350l353 486l16 -10l-331 -456h312v280h20v-280h130v-20h-130v-200h-20z" />
    <glyph glyph-name="five" unicode="5" 
d="M40 250q0 -96 67.5 -163t162.5 -67q96 0 163 67.5t67 162.5q0 96 -67.5 163t-162.5 67q-106 0 -175 -80h-20v300h385v-20h-365v-250q20 20 63 42q57 28 112 28q105 0 177.5 -73.5t72.5 -176.5q0 -105 -73.5 -177.5t-176.5 -72.5q-105 0 -177.5 73.5t-72.5 176.5h20z" />
    <glyph glyph-name="six" unicode="6" 
d="M270 480q96 0 163 -67.5t67 -162.5q0 -96 -67.5 -163t-162.5 -67q-96 0 -163 67.5t-67 162.5q0 96 67.5 163t162.5 67zM520 700q-207 0 -353.5 -132t-146.5 -318q0 -105 73.5 -177.5t176.5 -72.5q105 0 177.5 73.5t72.5 176.5q0 105 -73.5 177.5t-176.5 72.5
q-132 0 -207 -110q38 104 150 189q134 101 307 101v20z" />
    <glyph glyph-name="seven" unicode="7" 
d="M20 700h500v-80q0 -97 -109 -194q-33 -30 -101 -80q-70 -53 -101 -80q-109 -95 -109 -186v-80h-20v80q0 97 109 194q33 30 102 81.5t100 78.5q109 95 109 186v60h-480v20z" />
    <glyph glyph-name="eight" unicode="8" horiz-adv-x="440" 
d="M220 680q58 0 99 -41t41 -99t-41 -99t-99 -41t-99 41t-41 99t41 99t99 41zM220 380q75 0 127.5 -53t52.5 -127q0 -75 -53 -127.5t-127 -52.5q-75 0 -127.5 53t-52.5 127q0 75 53 127.5t127 52.5zM220 700q-59 0 -109.5 -46.5t-50.5 -111.5q0 -91 68 -133q20 -13 42 -19
q-53 -7 -98 -56q-52 -57 -52 -134q0 -82 59 -141t141 -59t141 59t59 141q0 53 -27 100t-73 73q-26 14 -50 17q77 21 104 92q9 25 9 60q0 66 -48.5 112t-114.5 46z" />
    <glyph glyph-name="nine" unicode="9" 
d="M270 220q-96 0 -163 67.5t-67 162.5q0 96 67.5 163t162.5 67q96 0 163 -67.5t67 -162.5q0 -96 -67.5 -163t-162.5 -67zM20 0q207 0 353.5 132t146.5 318q0 105 -73.5 177.5t-176.5 72.5q-105 0 -177.5 -73.5t-72.5 -176.5q0 -105 73.5 -177.5t176.5 -72.5q132 0 207 110
q-41 -107 -149 -188q-135 -102 -308 -102v-20z" />
    <glyph glyph-name="colon" unicode=":" horiz-adv-x="110" 
d="M55 50q25 0 25 -25t-25 -25t-25 25t25 25zM55 500q25 0 25 -25t-25 -25t-25 25t25 25z" />
    <glyph glyph-name="semicolon" unicode=";" horiz-adv-x="217" 
d="M171 118l16 -11l-141 -207l-16 12zM108 500q25 0 25 -25t-25 -25t-25 25t25 25z" />
    <glyph glyph-name="less" unicode="&#x3c;" horiz-adv-x="440" 
d="M20 320l392 180l8 -19l-350 -161l350 -161l-8 -19z" />
    <glyph glyph-name="equal" unicode="=" horiz-adv-x="500" 
d="M50 430h400v-20h-400v20zM50 230h400v-20h-400v20z" />
    <glyph glyph-name="greater" unicode="&#x3e;" horiz-adv-x="440" 
d="M420 320l-392 180l-8 -19l350 -161l-350 -161l8 -19z" />
    <glyph glyph-name="question" unicode="?" horiz-adv-x="380" 
d="M30 540q0 66 47 113t113 47t113 -47t47 -113q0 -41 -24 -86q-12 -21 -51 -74q-75 -104 -75 -180h-20q0 86 75 188q42 57 50 71q25 42 25 81q0 58 -41 99t-99 41t-99 -41t-41 -99h-20zM190 50q25 0 25 -25t-25 -25t-25 25t25 25z" />
    <glyph glyph-name="at" unicode="@" horiz-adv-x="740" 
d="M370 550q-82 0 -141 -59t-59 -141t59 -141t141 -59t141 59t59 141t-59 141t-141 59zM370 530q75 0 127.5 -53t52.5 -127q0 -75 -53 -127.5t-127 -52.5q-75 0 -127.5 53t-52.5 127q0 75 53 127.5t127 52.5zM570 350h-20v-150q0 -47 38 -64q10 -5 19 -5q38 0 62 36
q10 15 30 54q21 56 21 129q0 146 -103 248t-247 102q-146 0 -248 -103t-102 -247q0 -146 103 -248t247 -102q105 0 194 59q-5 9 -11 16q-83 -55 -183 -55q-137 0 -233.5 97.5t-96.5 232.5q0 137 97.5 233.5t232.5 96.5q137 0 233.5 -97.5t96.5 -232.5q0 -61 -18.5 -112.5
t-46.5 -77.5q-9 -9 -25 -9q-18 0 -29 16t-11 35v148z" />
    <glyph glyph-name="A" unicode="A" horiz-adv-x="640" 
d="M20 0l295 700h10l295 -700h-20l-113 260h-334l-113 -260h-20zM160 280h320l-160 390z" />
    <glyph glyph-name="B" unicode="B" horiz-adv-x="548" 
d="M20 700h20v-340h235q68 0 116.5 48.5t48.5 116.5t-48.5 111.5t-116.5 43.5h-255v20h255q77 0 131 -49.5t54 -125.5q0 -77 -54.5 -131t-130.5 -54q-9 0 33 11q22 5 42 9q75 0 127.5 -53t52.5 -127q0 -75 -53 -127.5t-127 -52.5h-330v20h330q66 0 113 47t47 113t-47 113
t-113 47h-310v-340h-20v700z" />
    <glyph glyph-name="C" unicode="C" horiz-adv-x="635" 
d="M20 350q0 -146 103 -248t247 -102q110 0 205 68q23 17 38 30l-15 15q-66 -58 -158 -83q-34 -10 -70 -10q-137 0 -233.5 97.5t-96.5 232.5q0 137 97.5 233.5t232.5 96.5q129 0 228 -93l15 15q-96 98 -243 98q-146 0 -248 -103t-102 -247z" />
    <glyph glyph-name="D" unicode="D" horiz-adv-x="650" 
d="M20 700v-700h280q124 0 227 110t103 240t-103 240t-227 110h-280zM40 20v660h260q117 0 213.5 -103.5t96.5 -226.5t-96.5 -226.5t-213.5 -103.5h-260z" />
    <glyph glyph-name="E" unicode="E" horiz-adv-x="633" 
d="M20 350q0 -146 103 -248t247 -102q110 0 205 68q23 17 38 30l-15 15q-66 -58 -158 -83q-34 -10 -70 -10q-100 0 -182 55t-122 147q-26 60 -26 118v10q0 137 97.5 233.5t232.5 96.5q129 0 228 -93l15 15q-96 98 -243 98q-146 0 -248 -103t-102 -247zM550 360v-20h-510v20
h510z" />
    <glyph glyph-name="F" unicode="F" horiz-adv-x="390" 
d="M20 -1v351q0 146 103 248t247 102v-20q-137 0 -233.5 -97.5t-96.5 -232.5v-350zM370 360v-20h-330v20h330z" />
    <glyph glyph-name="G" unicode="G" horiz-adv-x="740" 
d="M20 350q0 -146 103 -248t247 -102q104 0 192 57t131 153q27 61 27 150h-350v-20h330q0 -133 -99 -226.5t-231 -93.5q-137 0 -233.5 97.5t-96.5 232.5q0 137 97.5 233.5t232.5 96.5q129 0 228 -93l15 15q-96 98 -243 98q-146 0 -248 -103t-102 -247z" />
    <glyph glyph-name="H" unicode="H" horiz-adv-x="650" 
d="M20 700h20v-340h570v340h20v-700h-20v340h-570v-340h-21z" />
    <glyph glyph-name="I" unicode="I" horiz-adv-x="260" 
d="M20 700h220v-20h-100v-660h100v-20h-220v20h100v660h-100v20z" />
    <glyph glyph-name="J" unicode="J" horiz-adv-x="390" 
d="M185 700h185v-525q0 -72 -56.5 -123.5t-128.5 -51.5t-119 53q-46 50 -46 122v45h20v-45q0 -64 41 -109.5t104 -45.5q64 0 114.5 46t50.5 109v505h-165v20z" />
    <glyph glyph-name="K" unicode="K" horiz-adv-x="550" 
d="M20 700h20v-340h260q58 0 99 41t41 99v199l20 1v-200q0 -56 -30 -93q-25 -31 -60 -47q58 0 108 -55q52 -58 52 -125v-180h-20v180q0 66 -47 113t-113 47h-310v-340h-20v700z" />
    <glyph glyph-name="L" unicode="L" horiz-adv-x="370" 
d="M20 700h20v-550q0 -54 38 -92t92 -38h180v-20h-180q-61 0 -105.5 44.5t-44.5 105.5v550z" />
    <glyph glyph-name="M" unicode="M" horiz-adv-x="840" 
d="M20 0v500q0 82 59 141t141 59q53 0 102.5 -27t77.5 -71q17 -27 20 -52q6 53 63.5 101.5t136.5 48.5q82 0 141 -59t59 -141v-500h-20v500q0 75 -53 127.5t-127 52.5q-75 0 -132.5 -53t-57.5 -127v-500h-20v500q0 74 -57.5 127t-132.5 53t-127.5 -53t-52.5 -127v-500h-20z
" />
    <glyph glyph-name="N" unicode="N" horiz-adv-x="490" 
d="M20 0v475q0 94 66 159.5t159 65.5t159 -66t66 -159v-475h-20v475q0 85 -60.5 145t-144.5 60q-85 0 -145 -60.5t-60 -144.5v-475h-20z" />
    <glyph glyph-name="O" unicode="O" horiz-adv-x="740" 
d="M20 350q0 -146 103 -248t247 -102q146 0 248 103t102 247q0 146 -103 248t-247 102q-146 0 -248 -103t-102 -247zM700 350q0 -137 -97.5 -233.5t-232.5 -96.5q-137 0 -233.5 97.5t-96.5 232.5q0 137 97.5 233.5t232.5 96.5q137 0 233.5 -97.5t96.5 -232.5z" />
    <glyph glyph-name="P" unicode="P" horiz-adv-x="440" 
d="M20 0v700h225q72 0 123.5 -51.5t51.5 -123.5t-51.5 -123.5t-123.5 -51.5h-205v-350h-20zM40 680v-310h205q63 0 109 46t46 109t-46 109t-109 46h-205z" />
    <glyph glyph-name="Q" unicode="Q" horiz-adv-x="740" 
d="M20 350q0 -143 99.5 -244.5t240.5 -105.5v-20q0 -82 64 -141t146 -59v20q-75 0 -132.5 53t-57.5 127v20q142 4 241 106.5t99 243.5q0 146 -103 248t-247 102q-146 0 -248 -103t-102 -247zM360 350v-330q-133 4 -226.5 101t-93.5 229q0 137 97.5 233.5t232.5 96.5
q137 0 233.5 -97.5t96.5 -232.5q0 -132 -94.5 -229t-225.5 -101v330h-20z" />
    <glyph glyph-name="R" unicode="R" horiz-adv-x="550" 
d="M20 700h20v-340h235q68 0 116.5 48.5t48.5 116.5t-48.5 111.5t-116.5 43.5h-255v20h255q77 0 131 -49.5t54 -125.5q0 -77 -54.5 -131t-130.5 -54q-9 0 33 11q22 5 42 9q75 0 127.5 -53t52.5 -127v-180h-20v180q0 66 -47 113t-113 47h-310v-340h-20v700z" />
    <glyph glyph-name="S" unicode="S" horiz-adv-x="490" 
d="M470 680v20h-120q-82 0 -141 -59t-59 -141q0 -63 75 -127l60 -50q34 -30 54 -57q36 -47 36 -91q0 -63 -57 -109t-138 -46h-160v-20h160q62 0 115 26q57 29 84 81q16 32 16 68q0 51 -41 107q-27 35 -78 78l-32 27q-71 59 -71 113q0 75 51.5 127.5t125.5 52.5h120z" />
    <glyph glyph-name="T" unicode="T" horiz-adv-x="650" 
d="M20 700v-20h295v-680h20v680h295v20h-610z" />
    <glyph glyph-name="U" unicode="U" horiz-adv-x="490" 
d="M20 700v-475q0 -94 66 -159.5t159 -65.5q94 0 159.5 66t65.5 159v475h-20v-475q0 -85 -60.5 -145t-144.5 -60q-85 0 -145 60.5t-60 144.5v475h-20z" />
    <glyph glyph-name="V" unicode="V" horiz-adv-x="640" 
d="M20 700l300 -700l300 700h-22l-278 -645l-278 645h-22z" />
    <glyph glyph-name="W" unicode="W" horiz-adv-x="920" 
d="M20 700l300 -700l300 700h-22l-278 -645l-278 645h-22zM300 700l300 -700l300 700h-22l-278 -645l-278 645h-22z" />
    <glyph glyph-name="X" unicode="X" horiz-adv-x="490" 
d="M20 700h22l428 -700h-22zM20 0l428 700h22l-428 -700h-22z" />
    <glyph glyph-name="Y" unicode="Y" horiz-adv-x="490" 
d="M20 700v-475q0 -94 66 -159.5t159 -65.5q94 0 159.5 66t65.5 159v475h-20v-475q0 -85 -60.5 -145t-144.5 -60q-85 0 -145 60.5t-60 144.5v475h-20zM452 224l-2 -224q-1 -75 -53.5 -127.5t-126.5 -52.5v-20q82 0 141 59t59 141v225z" />
    <glyph glyph-name="Z" unicode="Z" horiz-adv-x="490" 
d="M20 700v-20h413l-413 -680h450v20h-413l413 680h-450z" />
    <glyph glyph-name="bracketleft" unicode="[" horiz-adv-x="400" 
d="M100 770h200v-20h-180v-800h180v-20h-200v840z" />
    <glyph glyph-name="backslash" unicode="\" 
d="M520 12l-484 688l-16 -12l484 -688z" />
    <glyph glyph-name="bracketright" unicode="]" horiz-adv-x="400" 
d="M300 770h-200v-20h180v-800h-180v-20h200v840z" />
    <glyph glyph-name="asciicircum" unicode="^" horiz-adv-x="500" 
d="M250 700l14 -14l196 -194l-14 -14l-196 194l-196 -195l-14 15z" />
    <glyph glyph-name="underscore" unicode="_" 
d="M20 20h500v-20h-500v20z" />
    <glyph glyph-name="grave" unicode="`" horiz-adv-x="247" 
d="M46 700l-16 -11l141 -207l16 12z" />
    <glyph glyph-name="a" unicode="a" 
d="M270 500q-105 0 -177.5 -73.5t-72.5 -176.5q0 -105 73.5 -177.5t176.5 -72.5q105 0 177.5 73.5t72.5 176.5q0 105 -73.5 177.5t-176.5 72.5zM270 480q96 0 163 -67.5t67 -162.5q0 -96 -67.5 -163t-162.5 -67q-96 0 -163 67.5t-67 162.5q0 96 67.5 163t162.5 67zM520 250
h-20v-250h20v250z" />
    <glyph glyph-name="b" unicode="b" horiz-adv-x="590" 
d="M320 500q-105 0 -177.5 -73.5t-72.5 -176.5q0 -105 73.5 -177.5t176.5 -72.5q105 0 177.5 73.5t72.5 176.5q0 105 -73.5 177.5t-176.5 72.5zM320 480q96 0 163 -67.5t67 -162.5q0 -96 -67.5 -163t-162.5 -67q-96 0 -163 67.5t-67 162.5q0 96 67.5 163t162.5 67zM70 250
h20v450h-90v-20h70v-430z" />
    <glyph glyph-name="c" unicode="c" horiz-adv-x="476" 
d="M270 500q-105 0 -177.5 -73.5t-72.5 -176.5q0 -105 73.5 -177.5t176.5 -72.5q110 0 186 83l-14 14q-68 -77 -172 -77q-96 0 -163 67.5t-67 162.5q0 96 67.5 163t162.5 67q102 0 172 -77l14 14q-76 83 -186 83z" />
    <glyph glyph-name="d" unicode="d" 
d="M270 500q-105 0 -177.5 -73.5t-72.5 -176.5q0 -105 73.5 -177.5t176.5 -72.5q105 0 177.5 73.5t72.5 176.5q0 105 -73.5 177.5t-176.5 72.5zM270 480q96 0 163 -67.5t67 -162.5q0 -96 -67.5 -163t-162.5 -67q-96 0 -163 67.5t-67 162.5q0 96 67.5 163t162.5 67zM500 250
h20v450h-90v-20h70v-430z" />
    <glyph glyph-name="e" unicode="e" 
d="M270 500q-105 0 -177.5 -73.5t-72.5 -176.5q0 -105 73.5 -177.5t176.5 -72.5q110 0 186 83l-14 14q-68 -77 -172 -77q-96 0 -163 67.5t-67 162.5q0 96 67.5 163t162.5 67q92 0 161 -64.5t69 -155.5h-460v-20h480v10q0 105 -73.5 177.5t-176.5 72.5z" />
    <glyph glyph-name="f" unicode="f" horiz-adv-x="370" 
d="M100 0v480h-80v20h80v100q0 42 29 71t71 29h80v-20h-80q-33 0 -56.5 -23.5t-23.5 -56.5v-100h230v-20h-230v-480h-20z" />
    <glyph glyph-name="g" unicode="g" 
d="M270 500q-105 0 -177.5 -73.5t-72.5 -176.5q0 -105 73.5 -177.5t176.5 -72.5q105 0 177.5 73.5t72.5 176.5q0 105 -73.5 177.5t-176.5 72.5zM270 480q96 0 163 -67.5t67 -162.5q0 -96 -67.5 -163t-162.5 -67q-96 0 -163 67.5t-67 162.5q0 96 67.5 163t162.5 67zM520 250
h-20v-250q0 -96 -67.5 -163t-162.5 -67v-20q105 0 177.5 73.5t72.5 176.5v250z" />
    <glyph glyph-name="h" unicode="h" horiz-adv-x="610" 
d="M90 0v250q0 105 73.5 177.5t176.5 72.5q105 0 177.5 -73.5t72.5 -176.5v-250h-20v250q0 96 -67.5 163t-162.5 67q-96 0 -163 -67.5t-67 -162.5v-250h-20zM90 250v430h-90v20h110v-450h-20z" />
    <glyph glyph-name="i" unicode="i" horiz-adv-x="155" 
d="M110 0v480h-90v20h110v-500h-20zM120 700q15 0 15 -15t-15 -15t-15 15t15 15z" />
    <glyph glyph-name="j" unicode="j" horiz-adv-x="197" 
d="M152 0v480h-110v20h130v-500h-20zM162 700q15 0 15 -15t-15 -15t-15 15t15 15zM172 0q0 -59 -39 -130t-101 -120l-12 15q53 45 89 105q43 70 43 130h20z" />
    <glyph glyph-name="k" unicode="k" horiz-adv-x="560" 
d="M90 0v680h-90v20h110v-440h205q93 0 159 -66t66 -159v-35h-20v35q0 85 -60.5 145t-144.5 60h-205v-240h-20zM470 500q0 -105 -73.5 -182.5t-176.5 -77.5v20q96 0 163 72t67 168h20z" />
    <glyph glyph-name="l" unicode="l" horiz-adv-x="130" 
d="M0 700h110v-700h-20v680h-90v20z" />
    <glyph glyph-name="m" unicode="m" horiz-adv-x="840" 
d="M20 0v300q0 85 60.5 142.5t144.5 57.5q85 0 145 -58t60 -142v-300h-20v300q0 77 -54.5 128.5t-130.5 51.5q-77 0 -131 -52t-54 -128v-300h-20zM410 0v300q0 85 60.5 142.5t144.5 57.5q85 0 145 -58t60 -142v-300h-20v300q0 77 -54.5 128.5t-130.5 51.5q-77 0 -131 -52
t-54 -128v-300h-20z" />
    <glyph glyph-name="n" unicode="n" 
d="M20 0v250q0 105 73.5 177.5t176.5 72.5q105 0 177.5 -73.5t72.5 -176.5v-250h-20v250q0 96 -67.5 163t-162.5 67q-96 0 -163 -67.5t-67 -162.5v-250h-20z" />
    <glyph glyph-name="o" unicode="o" 
d="M270 500q-105 0 -177.5 -73.5t-72.5 -176.5q0 -105 73.5 -177.5t176.5 -72.5q105 0 177.5 73.5t72.5 176.5q0 105 -73.5 177.5t-176.5 72.5zM270 480q96 0 163 -67.5t67 -162.5q0 -96 -67.5 -163t-162.5 -67q-96 0 -163 67.5t-67 162.5q0 96 67.5 163t162.5 67z" />
    <glyph glyph-name="p" unicode="p" 
d="M270 500q-105 0 -177.5 -73.5t-72.5 -176.5q0 -105 73.5 -177.5t176.5 -72.5q105 0 177.5 73.5t72.5 176.5q0 105 -73.5 177.5t-176.5 72.5zM270 480q96 0 163 -67.5t67 -162.5q0 -96 -67.5 -163t-162.5 -67q-96 0 -163 67.5t-67 162.5q0 96 67.5 163t162.5 67zM20 250
v-500h20v500h-20z" />
    <glyph glyph-name="q" unicode="q" 
d="M270 500q-105 0 -177.5 -73.5t-72.5 -176.5q0 -105 73.5 -177.5t176.5 -72.5q105 0 177.5 73.5t72.5 176.5q0 105 -73.5 177.5t-176.5 72.5zM270 480q96 0 163 -67.5t67 -162.5q0 -96 -67.5 -163t-162.5 -67q-96 0 -163 67.5t-67 162.5q0 96 67.5 163t162.5 67zM520 250
h-20v-500h20v500z" />
    <glyph glyph-name="r" unicode="r" horiz-adv-x="290" 
d="M20 0v250q0 105 73.5 177.5t176.5 72.5v-20q-96 0 -163 -67.5t-67 -162.5v-250h-20z" />
    <glyph glyph-name="s" unicode="s" horiz-adv-x="300" 
d="M280 500h-70q-53 0 -91.5 -38.5t-38.5 -91.5q0 -45 32 -75l23 -23q26 -26 74 -82q21 -30 21 -60q0 -110 -120 -110h-90v-20h90q140 0 140 130q0 50 -61 111q-47 47 -75 81q-14 17 -14 48q0 47 31.5 78.5t78.5 31.5h70v20z" />
    <glyph glyph-name="t" unicode="t" horiz-adv-x="400" 
d="M20 500h90v200h20v-200h250v-20h-250v-230q0 -70 46 -129q43 -56 111 -83q45 -18 93 -18v-20q-105 0 -186 73q-84 74 -84 177v230h-90v20z" />
    <glyph glyph-name="u" unicode="u" 
d="M20 500h20v-250q0 -96 67.5 -163t162.5 -67q96 0 163 67.5t67 162.5v250h20v-250q0 -105 -73.5 -177.5t-176.5 -72.5q-105 0 -177.5 73.5t-72.5 176.5v250z" />
    <glyph glyph-name="v" unicode="v" horiz-adv-x="534" 
d="M20 493l18 7l229 -465l229 465l18 -7l-247 -493z" />
    <glyph glyph-name="w" unicode="w" horiz-adv-x="765" 
d="M20 493l18 7l229 -465l229 465l18 -7l-247 -493zM251 493l18 7l229 -465l229 465l18 -7l-247 -493z" />
    <glyph glyph-name="x" unicode="x" horiz-adv-x="472" 
d="M20 489l13 11l203 -237l203 237l13 -11l-205 -239l205 -239l-13 -11l-203 237l-203 -237l-13 11l205 239z" />
    <glyph glyph-name="y" unicode="y" 
d="M20 500h20v-250q0 -96 67.5 -163t162.5 -67q96 0 163 67.5t67 162.5v250h20v-250q0 -105 -73.5 -177.5t-176.5 -72.5q-105 0 -177.5 73.5t-72.5 176.5v250zM520 250v-250q0 -105 -73.5 -177.5t-176.5 -72.5v20q96 0 163 67.5t67 162.5v250h20z" />
    <glyph glyph-name="z" unicode="z" 
d="M20 500h500l-453 -480h453v-20h-500l453 480h-453v20z" />
    <glyph glyph-name="Agrave" unicode="&#xc0;" horiz-adv-x="640" 
d="M20 0l295 700h10l295 -700h-20l-113 260h-334l-113 -260h-20zM160 280h320l-160 390zM195 951l-16 -11l141 -207l16 12z" />
    <glyph glyph-name="Aacute" unicode="&#xc1;" horiz-adv-x="640" 
d="M20 0l295 700h10l295 -700h-20l-113 260h-334l-113 -260h-20zM160 280h320l-160 390zM444 956l16 -11l-141 -207l-16 12z" />
    <glyph glyph-name="Acircumflex" unicode="&#xc2;" horiz-adv-x="640" 
d="M20 0l295 700h10l295 -700h-20l-113 260h-334l-113 -260h-20zM160 280h320l-160 390zM319 922l14 -14l196 -194l-14 -14l-196 194l-196 -195l-14 15z" />
    <glyph glyph-name="Atilde" unicode="&#xc3;" horiz-adv-x="640" 
d="M20 0l295 700h10l295 -700h-20l-113 260h-334l-113 -260h-20zM160 280h320l-160 390zM173 707q0 33 23.5 55.5t56.5 24.5q17 1 67 -38q25 -20 39 -28q23 -13 44 -14q41 -2 70.5 28.5t29.5 71.5h-20q0 -33 -23.5 -56.5t-56.5 -23.5q-20 0 -71 40t-79 40q-42 0 -71 -29
t-29 -71h20z" />
    <glyph glyph-name="Adieresis" unicode="&#xc4;" horiz-adv-x="640" 
d="M20 0l295 700h10l295 -700h-20l-113 260h-334l-113 -260h-20zM160 280h320l-160 390zM218 795q25 0 25 -25t-25 -25t-25 25t25 25zM399 800q25 0 25 -25t-25 -25t-25 25t25 25z" />
    <glyph glyph-name="Aring" unicode="&#xc5;" horiz-adv-x="640" 
d="M474 946l-104 -70l43 -118l-99 77l-99 -77l43 118l-104 70l125 -4l35 120l35 -120zM620 0h-20l-113 260h-334l-113 -260h-20l295 700h10zM394 928l-64 -4l-19 60l-16 -62h-63l54 -33l-20 -60l49 40l51 -37l-24 59zM480 280l-160 390l-160 -390h320z" />
    <glyph glyph-name="AE" unicode="&#xc6;" horiz-adv-x="1032" 
d="M40 -1l113 260h334l113 -260h20l-18 42l9 -4q22 -11 40 -19q45 -19 118 -19q110 0 205 68q23 17 38 30l-15 15q-66 -58 -158 -83q-34 -10 -70 -10q-97 0 -181 54l-143 340q23 101 91 169q97 97 233 97q129 0 228 -93l15 15q-96 98 -243 98q-145 0 -247 -102
q-61 -61 -90 -152l-107 254h-10l-295 -700h20zM320 669l160 -390h-320zM949 360v-20h-473l-8 20h481z" />
    <glyph glyph-name="Ccedilla" unicode="&#xc7;" horiz-adv-x="635" 
d="M161 69l-130 -191l-16 12l131 191q-126 105 -126 269q0 146 103 248t247 102q147 0 243 -98l-15 -15q-99 93 -228 93q-137 0 -233.5 -97.5t-96.5 -232.5q0 -137 97.5 -233.5t232.5 -96.5q91 0 188 63q24 16 40 30l15 -15q-72 -63 -162 -87q-38 -11 -81 -11
q-115 0 -209 69zM156 96l-10 -15q7 -6 15 -12l11 16z" />
    <glyph glyph-name="Egrave" unicode="&#xc8;" horiz-adv-x="633" 
d="M20 350q0 -146 103 -248t247 -102q110 0 205 68q23 17 38 30l-15 15q-66 -58 -158 -83q-34 -10 -70 -10q-100 0 -182 55t-122 147q-26 60 -26 118v10q0 137 97.5 233.5t232.5 96.5q129 0 228 -93l15 15q-96 98 -243 98q-146 0 -248 -103t-102 -247zM550 360v-20h-510v20
h510zM246 951l-16 -11l141 -207l16 12z" />
    <glyph glyph-name="Eacute" unicode="&#xc9;" horiz-adv-x="633" 
d="M20 350q0 -146 103 -248t247 -102q110 0 205 68q23 17 38 30l-15 15q-66 -58 -158 -83q-34 -10 -70 -10q-100 0 -182 55t-122 147q-26 60 -26 118v10q0 137 97.5 233.5t232.5 96.5q129 0 228 -93l15 15q-96 98 -243 98q-146 0 -248 -103t-102 -247zM550 360v-20h-510v20
h510zM497 953l16 -11l-141 -207l-16 12z" />
    <glyph glyph-name="Ecircumflex" unicode="&#xca;" horiz-adv-x="633" 
d="M20 350q0 -146 103 -248t247 -102q110 0 205 68q23 17 38 30l-15 15q-66 -58 -158 -83q-34 -10 -70 -10q-100 0 -182 55t-122 147q-26 60 -26 118v10q0 137 97.5 233.5t232.5 96.5q129 0 228 -93l15 15q-96 98 -243 98q-146 0 -248 -103t-102 -247zM550 360v-20h-510v20
h510zM348 923l14 -14l196 -194l-14 -14l-196 194l-196 -195l-14 15z" />
    <glyph glyph-name="Edieresis" unicode="&#xcb;" horiz-adv-x="633" 
d="M20 350q0 -146 103 -248t247 -102q110 0 205 68q23 17 38 30l-15 15q-66 -58 -158 -83q-34 -10 -70 -10q-100 0 -182 55t-122 147q-26 60 -26 118v10q0 137 97.5 233.5t232.5 96.5q129 0 228 -93l15 15q-96 98 -243 98q-146 0 -248 -103t-102 -247zM550 360v-20h-510v20
h510zM497 808q25 0 25 -25t-25 -25t-25 25t25 25zM250 796q25 0 25 -25t-25 -25t-25 25t25 25z" />
    <glyph glyph-name="Igrave" unicode="&#xcc;" horiz-adv-x="260" 
d="M20 700h220v-20h-100v-660h100v-20h-220v20h100v660h-100v20zM18 943l-16 -11l141 -207l16 12z" />
    <glyph glyph-name="Iacute" unicode="&#xcd;" horiz-adv-x="260" 
d="M20 700h220v-20h-100v-660h100v-20h-220v20h100v660h-100v20zM244 933l16 -11l-141 -207l-16 12z" />
    <glyph glyph-name="Icircumflex" unicode="&#xce;" horiz-adv-x="308" 
d="M20 700h220v-20h-100v-660h100v-20h-220v20h100v660h-100v20zM131 946l14 -14l196 -194l-14 -14l-196 194l-196 -195l-14 15z" />
    <glyph glyph-name="Idieresis" unicode="&#xcf;" horiz-adv-x="260" 
d="M20 700h220v-20h-100v-660h100v-20h-220v20h100v660h-100v20zM81 773q15 0 15 -15t-15 -15t-15 15t15 15zM182 775q15 0 15 -15t-15 -15t-15 15t15 15z" />
    <glyph glyph-name="Ntilde" unicode="&#xd1;" horiz-adv-x="490" 
d="M90 710q0 33 23.5 55.5t56.5 24.5q17 1 67 -38q25 -20 39 -28q23 -13 44 -14q41 -2 70.5 28.5t29.5 71.5h-20q0 -33 -23.5 -56.5t-56.5 -23.5q-20 0 -71 40t-79 40q-42 0 -71 -29t-29 -71h20zM20 3v475q0 94 66 159.5t159 65.5t159 -66t66 -159v-475h-20v475
q0 85 -60.5 145t-144.5 60q-85 0 -145 -60.5t-60 -144.5v-475h-20z" />
    <glyph glyph-name="Ograve" unicode="&#xd2;" horiz-adv-x="740" 
d="M20 350q0 -146 103 -248t247 -102q146 0 248 103t102 247q0 146 -103 248t-247 102q-146 0 -248 -103t-102 -247zM700 350q0 -137 -97.5 -233.5t-232.5 -96.5q-137 0 -233.5 97.5t-96.5 232.5q0 137 97.5 233.5t232.5 96.5q137 0 233.5 -97.5t96.5 -232.5zM243 946
l-16 -11l141 -207l16 12z" />
    <glyph glyph-name="Oacute" unicode="&#xd3;" horiz-adv-x="740" 
d="M20 350q0 -146 103 -248t247 -102q146 0 248 103t102 247q0 146 -103 248t-247 102q-146 0 -248 -103t-102 -247zM700 350q0 -137 -97.5 -233.5t-232.5 -96.5q-137 0 -233.5 97.5t-96.5 232.5q0 137 97.5 233.5t232.5 96.5q137 0 233.5 -97.5t96.5 -232.5zM494 956
l16 -11l-141 -207l-16 12z" />
    <glyph glyph-name="Ocircumflex" unicode="&#xd4;" horiz-adv-x="740" 
d="M20 350q0 -146 103 -248t247 -102q146 0 248 103t102 247q0 146 -103 248t-247 102q-146 0 -248 -103t-102 -247zM700 350q0 -137 -97.5 -233.5t-232.5 -96.5q-137 0 -233.5 97.5t-96.5 232.5q0 137 97.5 233.5t232.5 96.5q137 0 233.5 -97.5t96.5 -232.5zM367 932
l14 -14l196 -194l-14 -14l-196 194l-196 -195l-14 15z" />
    <glyph glyph-name="Otilde" unicode="&#xd5;" horiz-adv-x="740" 
d="M20 350q0 -146 103 -248t247 -102q146 0 248 103t102 247q0 146 -103 248t-247 102q-146 0 -248 -103t-102 -247zM700 350q0 -137 -97.5 -233.5t-232.5 -96.5q-137 0 -233.5 97.5t-96.5 232.5q0 137 97.5 233.5t232.5 96.5q137 0 233.5 -97.5t96.5 -232.5zM223 713
q0 33 23.5 55.5t56.5 24.5q17 1 67 -38q25 -20 39 -28q23 -13 44 -14q41 -2 70.5 28.5t29.5 71.5h-20q0 -33 -23.5 -56.5t-56.5 -23.5q-20 0 -71 40t-79 40q-42 0 -71 -29t-29 -71h20z" />
    <glyph glyph-name="Odieresis" unicode="&#xd6;" horiz-adv-x="740" 
d="M20 350q0 -146 103 -248t247 -102q146 0 248 103t102 247q0 146 -103 248t-247 102q-146 0 -248 -103t-102 -247zM700 350q0 -137 -97.5 -233.5t-232.5 -96.5q-137 0 -233.5 97.5t-96.5 232.5q0 137 97.5 233.5t232.5 96.5q137 0 233.5 -97.5t96.5 -232.5zM228 788
q25 0 25 -25t-25 -25t-25 25t25 25zM508 783q25 0 25 -25t-25 -25t-25 25t25 25z" />
    <glyph glyph-name="Oslash" unicode="&#xd8;" horiz-adv-x="740" 
d="M582 602l-378 -537q77 -45 166 -45q137 0 233.5 97.5t96.5 232.5q0 153 -118 252zM567 615q8 -6 15 -13l12 17l-16 12zM187 76l380 539q-88 65 -197 65q-137 0 -233.5 -97.5t-96.5 -232.5q0 -83 39.5 -155.5t107.5 -118.5zM176 59q8 -6 17 -11l11 17q-8 5 -17 11zM142 11
l34 48q-73 48 -114.5 125.5t-41.5 165.5q0 146 103 248t247 102q115 0 208 -69l48 68l16 -12l-48 -68q126 -105 126 -269q0 -146 -103 -248t-247 -102q-95 0 -177 48l-35 -49z" />
    <glyph glyph-name="Ugrave" unicode="&#xd9;" horiz-adv-x="490" 
d="M20 700v-475q0 -94 66 -159.5t159 -65.5q94 0 159.5 66t65.5 159v475h-20v-475q0 -85 -60.5 -145t-144.5 -60q-85 0 -145 60.5t-60 144.5v475h-20zM127 953l-16 -11l141 -207l16 12z" />
    <glyph glyph-name="Uacute" unicode="&#xda;" horiz-adv-x="490" 
d="M20 700v-475q0 -94 66 -159.5t159 -65.5q94 0 159.5 66t65.5 159v475h-20v-475q0 -85 -60.5 -145t-144.5 -60q-85 0 -145 60.5t-60 144.5v475h-20zM372 948l16 -11l-141 -207l-16 12z" />
    <glyph glyph-name="Ucircumflex" unicode="&#xdb;" horiz-adv-x="490" 
d="M20 700v-475q0 -94 66 -159.5t159 -65.5q94 0 159.5 66t65.5 159v475h-20v-475q0 -85 -60.5 -145t-144.5 -60q-85 0 -145 60.5t-60 144.5v475h-20zM247 990l14 -14l196 -194l-14 -14l-196 194l-196 -195l-14 15z" />
    <glyph glyph-name="Udieresis" unicode="&#xdc;" horiz-adv-x="490" 
d="M20 700v-475q0 -94 66 -159.5t159 -65.5q94 0 159.5 66t65.5 159v475h-20v-475q0 -85 -60.5 -145t-144.5 -60q-85 0 -145 60.5t-60 144.5v475h-20zM199 798q15 0 15 -15t-15 -15t-15 15t15 15zM307 801q15 0 15 -15t-15 -15t-15 15t15 15z" />
    <glyph glyph-name="germandbls" unicode="&#xdf;" horiz-adv-x="341" 
d="M124 441q-24 -30 -24 -71q0 -27 14 -48q4 -6 34 -38q33 -35 66 -69q36 -45 36 -85q0 -17 -2 -31q24 25 24 77q0 40 -51 96q-24 25 -44 46q-37 38 -40 43q-15 21 -15 55q0 13 2 25zM322 546v-20h-70q-47 0 -78 -31q17 5 36 5h70v-20h-70q-32 0 -58 -15q-10 -22 -10 -49
t14 -48q4 -6 34 -38q33 -35 66 -69q36 -45 36 -85q0 -77 -54 -109q-30 -67 -128 -67h-90v20h90q65 0 96 33q-24 -7 -54 -7h-90v20h90q41 0 70 15q8 20 8 49q0 40 -51 96q-24 25 -44 46q-37 38 -40 43q-15 21 -15 55q0 68 58 108q38 68 114 68h70z" />
    <glyph glyph-name="agrave" unicode="&#xe0;" 
d="M270 500q-105 0 -177.5 -73.5t-72.5 -176.5q0 -105 73.5 -177.5t176.5 -72.5q105 0 177.5 73.5t72.5 176.5q0 105 -73.5 177.5t-176.5 72.5zM270 480q96 0 163 -67.5t67 -162.5q0 -96 -67.5 -163t-162.5 -67q-96 0 -163 67.5t-67 162.5q0 96 67.5 163t162.5 67zM520 250
h-20v-250h20v250zM145 752l-16 -11l141 -207l16 12z" />
    <glyph glyph-name="aacute" unicode="&#xe1;" 
d="M270 500q-105 0 -177.5 -73.5t-72.5 -176.5q0 -105 73.5 -177.5t176.5 -72.5q105 0 177.5 73.5t72.5 176.5q0 105 -73.5 177.5t-176.5 72.5zM270 480q96 0 163 -67.5t67 -162.5q0 -96 -67.5 -163t-162.5 -67q-96 0 -163 67.5t-67 162.5q0 96 67.5 163t162.5 67zM520 250
h-20v-250h20v250zM393 744l16 -11l-141 -207l-16 12z" />
    <glyph glyph-name="acircumflex" unicode="&#xe2;" 
d="M270 500q-105 0 -177.5 -73.5t-72.5 -176.5q0 -105 73.5 -177.5t176.5 -72.5q105 0 177.5 73.5t72.5 176.5q0 105 -73.5 177.5t-176.5 72.5zM270 480q96 0 163 -67.5t67 -162.5q0 -96 -67.5 -163t-162.5 -67q-96 0 -163 67.5t-67 162.5q0 96 67.5 163t162.5 67zM520 250
h-20v-250h20v250zM265 699l14 -14l196 -194l-14 -14l-196 194l-196 -195l-14 15z" />
    <glyph glyph-name="atilde" unicode="&#xe3;" 
d="M270 500q-105 0 -177.5 -73.5t-72.5 -176.5q0 -105 73.5 -177.5t176.5 -72.5q105 0 177.5 73.5t72.5 176.5q0 105 -73.5 177.5t-176.5 72.5zM270 480q96 0 163 -67.5t67 -162.5q0 -96 -67.5 -163t-162.5 -67q-96 0 -163 67.5t-67 162.5q0 96 67.5 163t162.5 67zM520 250
h-20v-250h20v250zM126 546q0 33 23.5 55.5t56.5 24.5q17 1 67 -38q25 -20 39 -28q23 -13 44 -14q41 -2 70.5 28.5t29.5 71.5h-20q0 -33 -23.5 -56.5t-56.5 -23.5q-20 0 -71 40t-79 40q-42 0 -71 -29t-29 -71h20z" />
    <glyph glyph-name="adieresis" unicode="&#xe4;" 
d="M270 500q-105 0 -177.5 -73.5t-72.5 -176.5q0 -105 73.5 -177.5t176.5 -72.5q105 0 177.5 73.5t72.5 176.5q0 105 -73.5 177.5t-176.5 72.5zM270 480q96 0 163 -67.5t67 -162.5q0 -96 -67.5 -163t-162.5 -67q-96 0 -163 67.5t-67 162.5q0 96 67.5 163t162.5 67zM520 250
h-20v-250h20v250zM181 605q15 0 15 -15l-5 -11q-2 -4 -10 -4q-15 0 -15 15t15 15zM341 606q15 0 15 -15t-15 -15t-15 15t15 15z" />
    <glyph glyph-name="aring" unicode="&#xe5;" 
d="M414 681l-90 -58l35 -102l-84 67l-86 -64l39 100l-89 62l108 -6l32 103l27 -104zM520 0h-20v250h20v-250zM520 250q0 -105 -73.5 -177.5t-176.5 -72.5q-105 0 -177.5 73.5t-72.5 176.5q0 105 73.5 177.5t176.5 72.5q105 0 177.5 -73.5t72.5 -176.5zM347 664l-55 -2
l-15 53l-15 -53l-55 2l45 -31l-19 -52l44 34l43 -34l-19 52zM500 250q0 96 -67.5 163t-162.5 67q-96 0 -163 -67.5t-67 -162.5q0 -96 67.5 -163t162.5 -67q96 0 163 67.5t67 162.5z" />
    <glyph glyph-name="ae" unicode="&#xe6;" horiz-adv-x="1000" 
d="M520 260h460q0 91 -71 157q-68 63 -159 63q-92 0 -159 -64t-71 -155v-1zM500 239v-5v16q0 96 -67.5 163t-162.5 67q-96 0 -163 -67.5t-67 -162.5q0 -96 67.5 -163t162.5 -67q92 0 159 64t71 155zM750 500q104 0 177 -73.5t73 -176.5v-10h-480v-5q0 -34 18 -74
q27 -65 84.5 -103t127.5 -38q103 0 172 77l14 -14q-77 -83 -186 -83q-76 0 -138 41t-92 109v-150h-20v151q-30 -69 -92.5 -110t-137.5 -41q-105 0 -177.5 73.5t-72.5 176.5q0 105 73.5 177.5t176.5 72.5q83 0 149.5 -49.5t90.5 -128.5q24 80 90.5 129t149.5 49zM500 239v11
v-16v5zM500 261v-11v-11v11v11z" />
    <glyph glyph-name="ccedilla" unicode="&#xe7;" horiz-adv-x="476" 
d="M187 35l-8 4l-12 -17l6 -2q5 -3 13 -6l10 15zM180 40l7 -5q39 -15 83 -15q104 0 172 77l14 -14q-76 -83 -186 -83q-44 0 -84 14l-131 -192l-16 12l128 188q-67 30 -107 92t-40 136q0 105 73.5 177.5t176.5 72.5q110 0 186 -83l-14 -14q-70 77 -172 77q-96 0 -163 -67.5
t-67 -162.5q0 -69 38 -126t101 -85z" />
    <glyph glyph-name="egrave" unicode="&#xe8;" 
d="M270 500q-105 0 -177.5 -73.5t-72.5 -176.5q0 -105 73.5 -177.5t176.5 -72.5q110 0 186 83l-14 14q-68 -77 -172 -77q-96 0 -163 67.5t-67 162.5q0 96 67.5 163t162.5 67q92 0 161 -64.5t69 -155.5h-460v-20h480v10q0 105 -73.5 177.5t-176.5 72.5zM145 752l-16 -11
l141 -207l16 12z" />
    <glyph glyph-name="eacute" unicode="&#xe9;" 
d="M270 500q-105 0 -177.5 -73.5t-72.5 -176.5q0 -105 73.5 -177.5t176.5 -72.5q110 0 186 83l-14 14q-68 -77 -172 -77q-96 0 -163 67.5t-67 162.5q0 96 67.5 163t162.5 67q92 0 161 -64.5t69 -155.5h-460v-20h480v10q0 105 -73.5 177.5t-176.5 72.5zM393 754l16 -11
l-141 -207l-16 12z" />
    <glyph glyph-name="ecircumflex" unicode="&#xea;" 
d="M270 500q-105 0 -177.5 -73.5t-72.5 -176.5q0 -105 73.5 -177.5t176.5 -72.5q110 0 186 83l-14 14q-68 -77 -172 -77q-96 0 -163 67.5t-67 162.5q0 96 67.5 163t162.5 67q92 0 161 -64.5t69 -155.5h-460v-20h480v10q0 105 -73.5 177.5t-176.5 72.5zM265 701l14 -14
l196 -194l-14 -14l-196 194l-196 -195l-14 15z" />
    <glyph glyph-name="edieresis" unicode="&#xeb;" 
d="M270 500q-105 0 -177.5 -73.5t-72.5 -176.5q0 -105 73.5 -177.5t176.5 -72.5q110 0 186 83l-14 14q-68 -77 -172 -77q-96 0 -163 67.5t-67 162.5q0 96 67.5 163t162.5 67q92 0 161 -64.5t69 -155.5h-460v-20h480v10q0 105 -73.5 177.5t-176.5 72.5zM341 606q15 0 15 -15
t-15 -15t-15 15t15 15zM198 601q15 0 15 -15q0 6 -1 7q-2 0 -3 -7q-2 -8 0 -10q1 -5 -11 -5q-15 0 -15 15t15 15z" />
    <glyph glyph-name="igrave" unicode="&#xec;" horiz-adv-x="155" 
d="M110 0v480h-90v20h110v-500h-20zM-21 751l-16 -11l141 -207l16 12z" />
    <glyph glyph-name="iacute" unicode="&#xed;" horiz-adv-x="187" 
d="M110 0v480h-90v20h110v-500h-20zM196 746l16 -11l-141 -207l-16 12z" />
    <glyph glyph-name="icircumflex" unicode="&#xee;" horiz-adv-x="243" 
d="M110 0v480h-90v20h110v-500h-20zM131 734l14 -14l196 -194l-14 -14l-196 194l-196 -195l-14 15z" />
    <glyph glyph-name="idieresis" unicode="&#xef;" horiz-adv-x="155" 
d="M110 0v480h-90v20h110v-500h-20zM106 579q15 0 15 -15t-15 -15t-15 15t15 15zM49 577q15 0 15 -15q0 -6 -4 -10t-11 -5q-15 0 -15 15t15 15z" />
    <glyph glyph-name="ntilde" unicode="&#xf1;" 
d="M20 0v250q0 105 73.5 177.5t176.5 72.5q105 0 177.5 -73.5t72.5 -176.5v-250h-20v250q0 96 -67.5 163t-162.5 67q-96 0 -163 -67.5t-67 -162.5v-250h-20zM91 528q0 33 23.5 55.5t56.5 24.5q17 1 67 -38q25 -20 39 -28q23 -13 44 -14q41 -2 70.5 28.5t29.5 71.5h-20
q0 -33 -23.5 -56.5t-56.5 -23.5q-20 0 -71 40t-79 40q-42 0 -71 -29t-29 -71h20z" />
    <glyph glyph-name="ograve" unicode="&#xf2;" 
d="M270 500q-105 0 -177.5 -73.5t-72.5 -176.5q0 -105 73.5 -177.5t176.5 -72.5q105 0 177.5 73.5t72.5 176.5q0 105 -73.5 177.5t-176.5 72.5zM270 480q96 0 163 -67.5t67 -162.5q0 -96 -67.5 -163t-162.5 -67q-96 0 -163 67.5t-67 162.5q0 96 67.5 163t162.5 67zM145 752
l-16 -11l141 -207l16 12z" />
    <glyph glyph-name="oacute" unicode="&#xf3;" 
d="M270 500q-105 0 -177.5 -73.5t-72.5 -176.5q0 -105 73.5 -177.5t176.5 -72.5q105 0 177.5 73.5t72.5 176.5q0 105 -73.5 177.5t-176.5 72.5zM270 480q96 0 163 -67.5t67 -162.5q0 -96 -67.5 -163t-162.5 -67q-96 0 -163 67.5t-67 162.5q0 96 67.5 163t162.5 67zM391 751
l16 -11l-141 -207l-16 12z" />
    <glyph glyph-name="ocircumflex" unicode="&#xf4;" 
d="M270 500q-105 0 -177.5 -73.5t-72.5 -176.5q0 -105 73.5 -177.5t176.5 -72.5q105 0 177.5 73.5t72.5 176.5q0 105 -73.5 177.5t-176.5 72.5zM270 480q96 0 163 -67.5t67 -162.5q0 -96 -67.5 -163t-162.5 -67q-96 0 -163 67.5t-67 162.5q0 96 67.5 163t162.5 67zM263 699
l14 -14l196 -194l-14 -14l-196 194l-196 -195l-14 15z" />
    <glyph glyph-name="otilde" unicode="&#xf5;" 
d="M270 500q-105 0 -177.5 -73.5t-72.5 -176.5q0 -105 73.5 -177.5t176.5 -72.5q105 0 177.5 73.5t72.5 176.5q0 105 -73.5 177.5t-176.5 72.5zM270 480q96 0 163 -67.5t67 -162.5q0 -96 -67.5 -163t-162.5 -67q-96 0 -163 67.5t-67 162.5q0 96 67.5 163t162.5 67zM108 536
q0 33 23.5 55.5t56.5 24.5q17 1 67 -38q25 -20 39 -28q23 -13 44 -14q41 -2 70.5 28.5t29.5 71.5h-20q0 -33 -23.5 -56.5t-56.5 -23.5q-20 0 -71 40t-79 40q-42 0 -71 -29t-29 -71h20z" />
    <glyph glyph-name="odieresis" unicode="&#xf6;" 
d="M270 500q-105 0 -177.5 -73.5t-72.5 -176.5q0 -105 73.5 -177.5t176.5 -72.5q105 0 177.5 73.5t72.5 176.5q0 105 -73.5 177.5t-176.5 72.5zM270 480q96 0 163 -67.5t67 -162.5q0 -96 -67.5 -163t-162.5 -67q-96 0 -163 67.5t-67 162.5q0 96 67.5 163t162.5 67zM341 606
q15 0 15 -15t-15 -15t-15 15t15 15zM195 599q15 0 15 -15t-15 -15t-15 15t15 15z" />
    <glyph glyph-name="oslash" unicode="&#xf8;" 
d="M138 62l259 379q-57 39 -127 39q-96 0 -163 -67.5t-67 -162.5q0 -119 98 -188zM154 51q-8 5 -16 11l-12 -17q8 -5 17 -11zM413 430l-259 -379q54 -31 116 -31q96 0 163 67.5t67 162.5q0 110 -87 180zM425 447q-8 6 -16 11l-12 -17q9 -5 16 -11zM445 511l22 -3l-42 -61
q95 -75 95 -197q0 -105 -73.5 -177.5t-176.5 -72.5q-68 0 -127 34l-23 -33l-16 12l22 32q-106 75 -106 205q0 105 73.5 177.5t176.5 72.5q76 0 139 -42z" />
    <glyph glyph-name="ugrave" unicode="&#xf9;" 
d="M20 500h20v-250q0 -96 67.5 -163t162.5 -67q96 0 163 67.5t67 162.5v250h20v-250q0 -105 -73.5 -177.5t-176.5 -72.5q-105 0 -177.5 73.5t-72.5 176.5v250zM145 752l-16 -11l141 -207l16 12z" />
    <glyph glyph-name="uacute" unicode="&#xfa;" 
d="M20 500h20v-250q0 -96 67.5 -163t162.5 -67q96 0 163 67.5t67 162.5v250h20v-250q0 -105 -73.5 -177.5t-176.5 -72.5q-105 0 -177.5 73.5t-72.5 176.5v250zM393 751l16 -11l-141 -207l-16 12z" />
    <glyph glyph-name="ucircumflex" unicode="&#xfb;" 
d="M20 500h20v-250q0 -96 67.5 -163t162.5 -67q96 0 163 67.5t67 162.5v250h20v-250q0 -105 -73.5 -177.5t-176.5 -72.5q-105 0 -177.5 73.5t-72.5 176.5v250zM268 764l14 -14l196 -194l-14 -14l-196 194l-196 -195l-14 15z" />
    <glyph glyph-name="udieresis" unicode="&#xfc;" 
d="M20 500h20v-250q0 -96 67.5 -163t162.5 -67q96 0 163 67.5t67 162.5v250h20v-250q0 -105 -73.5 -177.5t-176.5 -72.5q-105 0 -177.5 73.5t-72.5 176.5v250zM341 606q15 0 15 -15t-15 -15t-15 15t15 15zM205 601q15 0 15 -15q0 -4 -4.5 -9.5t-10.5 -5.5q-15 0 -15 15
t15 15z" />
    <glyph glyph-name="ydieresis" unicode="&#xff;" 
d="M20 500h20v-250q0 -96 67.5 -163t162.5 -67q96 0 163 67.5t67 162.5v250h20v-250q0 -105 -73.5 -177.5t-176.5 -72.5q-105 0 -177.5 73.5t-72.5 176.5v250zM520 250v-250q0 -105 -73.5 -177.5t-176.5 -72.5v20q96 0 163 67.5t67 162.5v250h20zM341 606q15 0 15 -15
t-15 -15t-15 15t15 15zM220 603q15 0 15 -15t-15 -15t-15 15t15 15z" />
    <glyph glyph-name="OE" unicode="&#x152;" horiz-adv-x="1280" 
d="M694 348q0 24 3 47q-15 109 -94 188q-97 97 -233 97q-137 0 -233.5 -97.5t-96.5 -232.5q0 -137 97.5 -233.5t232.5 -96.5q122 0 216 81.5t111 201.5q-3 22 -3 45zM720 342v8v12h-6v-14v-6h6zM1220 362v-20h-500q-1 -21 -3 -41q15 -107 94 -186q97 -97 233 -97
q91 0 188 63q24 16 40 30l15 -15q-72 -63 -162 -87q-38 -11 -81 -11q-118 0 -212 71.5t-125 184.5q-25 -87 -89 -151q-103 -103 -248 -103q-146 0 -248 103t-102 247q0 146 103 248t247 102q118 0 212 -71.5t125 -184.5q25 87 90 152q102 102 247 102q147 0 243 -98l-15 -15
q-99 93 -228 93q-122 0 -216 -81.5t-111 -201.5q2 -16 3 -33h500z" />
    <glyph glyph-name="oe" unicode="&#x153;" horiz-adv-x="1001" 
d="M518 281q1 -9 2 -19h456q0 91 -70 157q-68 63 -160 63q-86 0 -152 -58t-76 -143zM498 281q-11 85 -77 142t-151 57q-96 0 -163 -67.5t-67 -162.5q0 -96 67.5 -163t162.5 -67q87 0 152.5 58t75.5 143q-2 15 -2 31q0 15 2 29zM746 502q105 0 177.5 -73.5t72.5 -176.5v-10
h-476q0 -11 -2 -21q11 -85 77 -142t151 -57q104 0 172 77l14 -14q-76 -83 -186 -83q-81 0 -146.5 47.5t-90.5 124.5q-25 -78 -91 -126t-148 -48q-105 0 -177.5 73.5t-72.5 176.5q0 105 73.5 177.5t176.5 72.5q81 0 147 -47.5t91 -124.5q25 78 91 126t147 48z" />
    <glyph glyph-name="asciitilde" unicode="~" horiz-adv-x="390" 
d="M40 631q0 33 23.5 55.5t56.5 24.5q17 1 67 -38q25 -20 39 -28q23 -13 44 -14q41 -2 70.5 28.5t29.5 71.5h-20q0 -33 -23.5 -56.5t-56.5 -23.5q-20 0 -71 40t-79 40q-42 0 -71 -29t-29 -71h20z" />
    <glyph glyph-name="bar" unicode="|" horiz-adv-x="500" 
d="M300 800h20v-900h-20v900z" />
    <glyph glyph-name="braceleft" unicode="{" horiz-adv-x="240" 
d="M220 770q-42 0 -71 -29t-29 -71v-220q0 -21 -8 -37.5t-21.5 -29t-32 -21t-38.5 -12.5q20 -4 38.5 -12.5t32 -21t21.5 -29t8 -37.5v-220q0 -42 29 -71t71 -29v20q-33 0 -56.5 23.5t-23.5 56.5v220q0 33 -16.5 59t-48.5 41q32 15 48.5 41t16.5 59v220q0 33 23.5 56.5
t56.5 23.5v20z" />
    <glyph glyph-name="braceright" unicode="}" horiz-adv-x="240" 
d="M20 770q42 0 71 -29t29 -71v-220q0 -41 29.5 -66.5t70.5 -33.5q-41 -8 -70.5 -33.5t-29.5 -66.5v-220q0 -42 -29 -71t-71 -29v20q33 0 56.5 23.5t23.5 56.5v220q0 33 16.5 59t48.5 41q-32 15 -48.5 41t-16.5 59v220q0 33 -23.5 56.5t-56.5 23.5v20z" />
    <glyph glyph-name="Yacute" unicode="&#xdd;" horiz-adv-x="490" 
d="M20 700v-475q0 -94 66 -159.5t159 -65.5q94 0 159.5 66t65.5 159v475h-20v-475q0 -85 -60.5 -145t-144.5 -60q-85 0 -145 60.5t-60 144.5v475h-20zM452 224l-2 -224q-1 -75 -53.5 -127.5t-126.5 -52.5v-20q82 0 141 59t59 141v225zM362 960l16 -11l-141 -207l-16 12z" />
    <glyph glyph-name="yacute" unicode="&#xfd;" 
d="M20 500h20v-250q0 -96 67.5 -163t162.5 -67q96 0 163 67.5t67 162.5v250h20v-250q0 -105 -73.5 -177.5t-176.5 -72.5q-105 0 -177.5 73.5t-72.5 176.5v250zM520 250v-250q0 -105 -73.5 -177.5t-176.5 -72.5v20q96 0 163 67.5t67 162.5v250h20zM393 754l16 -11l-141 -207
l-16 12z" />
    <glyph glyph-name="Eth" unicode="&#xd0;" horiz-adv-x="740" 
d="M110 700v-340h-90v-20h90v-340h280q124 0 227 110t103 240t-103 240t-227 110h-280zM130 20v320h260v20h-260v320h260q117 0 213.5 -103.5t96.5 -226.5t-96.5 -226.5t-213.5 -103.5h-260z" />
    <glyph glyph-name="eth" unicode="&#xf0;" 
d="M214 572l74 33q-33 20 -67 35l8 20q37 -16 81 -46l103 46l7 -17l-92 -41q40 -29 85 -70q107 -96 107 -282q0 -105 -73.5 -177.5t-176.5 -72.5q-105 0 -177.5 73.5t-72.5 176.5q0 105 73.5 177.5t176.5 72.5q132 0 207 -110q-38 104 -150 189l-20 14l-87 -39zM270 480
q-96 0 -163 -67.5t-67 -162.5q0 -96 67.5 -163t162.5 -67q96 0 163 67.5t67 162.5q0 96 -67.5 163t-162.5 67z" />
    <glyph glyph-name="Thorn" unicode="&#xde;" horiz-adv-x="390" 
d="M20 700h20v-200h180q31 0 58.5 -12t47.5 -32t32 -47.5t12 -58.5t-12 -58.5t-32 -47.5t-47.5 -32t-58.5 -12h-180v-200h-20v700zM40 220h180q27 0 50.5 10t41.5 28t28 41.5t10 50.5t-10 50.5t-28 41.5t-41.5 28t-50.5 10h-180v-260z" />
    <glyph glyph-name="thorn" unicode="&#xfe;" 
d="M20 700v-439v-10v-451h20v350q18 -42 53 -77q74 -72 179 -73q103 1 175.5 74.5t72.5 176.5q0 105 -73.5 177.5t-176.5 72.5q-105 0 -178 -74q-34 -35 -52 -76v349h-20zM270 481q96 0 163 -67.5t67 -162.5q0 -96 -67.5 -163t-162.5 -67q-96 0 -163 67.5t-67 162.5v9
q3 90 67 154q68 67 163 67z" />
  </font>
</defs>
</svg>
